Coordinates
version=1
nRows=17
nColumns=40
inDegrees=yes

Units are S.I. units (second, meters, Newtons, ...)
If the header above contains a line with 'inDegrees', this indicates whether rotational values are in degrees (yes) or radians (no).

endheader
time	pelvis_tilt	pelvis_list	pelvis_rotation	pelvis_tx	pelvis_ty	pelvis_tz	hip_flexion_r	hip_adduction_r	hip_rotation_r	knee_angle_r	knee_angle_r_beta	ankle_angle_r	subtalar_angle_r	mtp_angle_r	hip_flexion_l	hip_adduction_l	hip_rotation_l	knee_angle_l	knee_angle_l_beta	ankle_angle_l	subtalar_angle_l	mtp_angle_l	lumbar_extension	lumbar_bending	lumbar_rotation	arm_flex_r	arm_add_r	arm_rot_r	elbow_flex_r	pro_sup_r	wrist_flex_r	wrist_dev_r	arm_flex_l	arm_add_l	arm_rot_l	elbow_flex_l	pro_sup_l	wrist_flex_l	wrist_dev_l
      0.25000000	      1.91651012	     11.61588287	    -80.34832166	      0.16614071	      0.95596334	     -0.92267395	     35.58652732	     -6.34486237	     -8.84140573	     -1.23082751	     -0.02148199	      0.60931873	      0.00000000	      0.00000000	     -4.34618173	      4.12379609	     10.59457542	      5.27991727	      0.09215194	     15.53486558	      0.00000000	      0.00000000	      1.12805595	     -4.43188333	    -11.14150303	      0.00000000	      0.00000000	      0.00000000	      0.00000000	      0.00000000	      0.00000000	      0.00000000	      0.00000000	      0.00000000	      0.00000000	      0.00000000	      0.00000000	      0.00000000	      0.00000000
      0.26000000	      1.78995188	     11.83090116	    -80.17596270	      0.16542486	      0.95375324	     -0.91108848	     35.88958384	     -6.25323351	     -9.09265543	     -1.45925407	     -0.02546879	      0.28824434	      0.00000000	      0.00000000	     -4.91777812	      3.80439727	     10.92213252	      5.13494291	      0.08962166	     15.64878218	      0.00000000	      0.00000000	      1.36206227	     -4.29281105	    -11.25129278	      0.00000000	      0.00000000	      0.00000000	      0.00000000	      0.00000000	      0.00000000	      0.00000000	      0.00000000	      0.00000000	      0.00000000	      0.00000000	      0.00000000	      0.00000000	      0.00000000
      0.27000000	      1.64738098	     12.11281003	    -80.04050268	      0.16463076	      0.95156507	     -0.89940105	     36.29173492	     -6.13781838	     -9.39746136	     -1.43568469	     -0.02505742	     -0.08020453	     -0.00000000	      0.00000000	     -5.36177489	      3.47523649	     10.98962685	      5.07921258	      0.08864898	     15.66545664	      0.00000000	      0.00000000	      1.67632567	     -4.12916747	    -11.35036625	     -0.00000000	     -0.00000000	      0.00000000	      0.00000000	      0.00000000	     -0.00000000	     -0.00000000	     -0.00000000	     -0.00000000	      0.00000000	      0.00000000	      0.00000000	     -0.00000000	     -0.00000000
      0.28000000	      1.40725425	     12.36118305	    -79.89226698	      0.16379638	      0.94962615	     -0.88751197	     36.64988863	     -5.93017439	     -9.86090662	     -1.22461228	     -0.02137352	     -0.79047824	      0.00000000	      0.00000000	     -5.80712383	      3.04382737	     11.15089575	      5.06137918	      0.08833773	     15.60184506	      0.00000000	      0.00000000	      1.99001341	     -3.83883092	    -11.44334083	      0.00000000	      0.00000000	      0.00000000	      0.00000000	      0.00000000	      0.00000000	      0.00000000	      0.00000000	      0.00000000	      0.00000000	      0.00000000	      0.00000000	      0.00000000	      0.00000000
      0.29000000	      1.10503123	     12.59656898	    -79.77347436	      0.16286953	      0.94787770	     -0.87545332	     36.99217062	     -5.63992946	    -10.44618267	     -0.84819417	     -0.01480378	     -1.73294052	      0.00000000	      0.00000000	     -6.21555843	      2.55501692	     11.24864548	      5.11534690	      0.08927965	     15.44560625	      0.00000000	      0.00000000	      2.29672276	     -3.48233129	    -11.53385784	      0.00000000	      0.00000000	      0.00000000	      0.00000000	      0.00000000	      0.00000000	      0.00000000	      0.00000000	      0.00000000	      0.00000000	      0.00000000	      0.00000000	      0.00000000	      0.00000000
      0.30000000	      0.74265230	     12.78197129	    -79.64170535	      0.16189903	      0.94645159	     -0.86322576	     37.25041196	     -5.29340803	    -11.17160746	     -0.35504515	     -0.00619671	     -2.88632244	      0.00000000	      0.00000000	     -6.58667803	      2.00596000	     11.28639066	      5.31091855	      0.09269301	     15.14932002	      0.00000000	      0.00000000	      2.56324815	     -3.04520034	    -11.66349818	      0.00000000	      0.00000000	      0.00000000	      0.00000000	      0.00000000	      0.00000000	      0.00000000	      0.00000000	      0.00000000	      0.00000000	      0.00000000	      0.00000000	      0.00000000	      0.00000000
      0.31000000	      0.35681963	     13.03749971	    -79.64017392	      0.16073657	      0.94514730	     -0.85085782	     37.62410869	     -4.87058743	    -11.69570550	      0.35378338	      0.00617468	     -4.05123202	     -0.00000000	     -0.00000000	     -6.84030755	      1.46818298	     11.15928672	      5.56786779	      0.09717763	     14.82617414	     -0.00000000	     -0.00000000	      2.93891425	     -2.57272946	    -11.64557211	      0.00000000	     -0.00000000	     -0.00000000	      0.00000000	      0.00000000	     -0.00000000	     -0.00000000	      0.00000000	     -0.00000000	     -0.00000000	      0.00000000	      0.00000000	      0.00000000	      0.00000000
      0.32000000	     -0.09548201	     13.26338757	    -79.65110454	      0.15948738	      0.94418490	     -0.83835173	     37.93979363	     -4.37810376	    -12.39826709	      1.14010042	      0.01989851	     -5.46653666	      0.00000000	      0.00000000	     -7.01389481	      0.87408386	     10.93969726	      5.99858191	      0.10469500	     14.32214966	      0.00000000	      0.00000000	      3.29032816	     -2.02003030	    -11.62815689	      0.00000000	      0.00000000	      0.00000000	      0.00000000	      0.00000000	      0.00000000	      0.00000000	      0.00000000	      0.00000000	      0.00000000	      0.00000000	      0.00000000	      0.00000000	      0.00000000
      0.33000000	     -0.58037329	     13.46869579	    -79.71289756	      0.15818000	      0.94353606	     -0.82570747	     38.22376873	     -3.83572768	    -12.98146822	      2.03869006	      0.03558185	     -6.84226261	     -0.00000000	     -0.00000000	     -7.11511327	      0.27219137	     10.63025877	      6.57431642	      0.11474347	     13.70201097	     -0.00000000	      0.00000000	      3.63624360	     -1.40316864	    -11.58353701	      0.00000000	     -0.00000000	      0.00000000	      0.00000000	      0.00000000	     -0.00000000	     -0.00000000	     -0.00000000	      0.00000000	      0.00000000	      0.00000000	      0.00000000	     -0.00000000	     -0.00000000
      0.34000000	     -1.09969700	     13.65201711	    -79.81830068	      0.15672072	      0.94321843	     -0.81295913	     38.45775875	     -3.23546092	    -13.54255180	      2.98688233	      0.05213093	     -8.21052532	      0.00000000	      0.00000000	     -7.12027110	     -0.34841822	     10.20349513	      7.33468025	      0.12801432	     12.90802192	      0.00000000	      0.00000000	      3.96322598	     -0.74727723	    -11.49344321	      0.00000000	      0.00000000	      0.00000000	      0.00000000	      0.00000000	      0.00000000	      0.00000000	      0.00000000	      0.00000000	      0.00000000	      0.00000000	      0.00000000	      0.00000000	      0.00000000
      0.35000000	     -1.56325572	     13.75755915	    -79.97103804	      0.15529560	      0.94334594	     -0.80017700	     38.59936061	     -2.66256207	    -13.61037738	      4.06224773	      0.07089960	     -9.11916725	      0.00000000	     -0.00000000	     -7.10969706	     -0.87543412	     10.00411469	      8.28446320	      0.14459116	     12.07235338	     -0.00000000	      0.00000000	      4.18132511	     -0.11111785	    -11.42799567	      0.00000000	     -0.00000000	      0.00000000	      0.00000000	      0.00000000	      0.00000000	      0.00000000	      0.00000000	      0.00000000	     -0.00000000	      0.00000000	      0.00000000	     -0.00000000	     -0.00000000
      0.36000000	     -2.18388612	     13.93259487	    -80.22120756	      0.15355086	      0.94364453	     -0.78714460	     38.75755493	     -1.89449119	    -14.32947472	      5.02491869	      0.08770138	    -10.53693323	      0.00000000	      0.00000000	     -6.88091431	     -1.57626759	      9.04250159	      9.40213227	      0.16409816	     10.78800969	      0.00000000	      0.00000000	      4.54182042	      0.68086468	    -11.16666368	      0.00000000	      0.00000000	      0.00000000	      0.00000000	      0.00000000	      0.00000000	      0.00000000	      0.00000000	      0.00000000	      0.00000000	      0.00000000	      0.00000000	      0.00000000	      0.00000000
      0.37000000	     -2.74764740	     14.01361273	    -80.48274522	      0.15182641	      0.94440039	     -0.77413599	     38.77309379	     -1.15477623	    -14.52931852	      6.02807706	      0.10520979	    -11.39975514	      0.00000000	      0.00000000	     -6.62671964	     -2.19890251	      8.34835252	     10.74287335	      0.18749851	      9.44779189	      0.00000000	      0.00000000	      4.76637701	      1.43839616	    -10.96738287	      0.00000000	      0.00000000	      0.00000000	      0.00000000	      0.00000000	      0.00000000	      0.00000000	      0.00000000	      0.00000000	      0.00000000	      0.00000000	      0.00000000	      0.00000000	      0.00000000
      0.38000000	     -3.27570160	     14.04833409	    -80.80273369	      0.15001515	      0.94549031	     -0.76109744	     38.70693682	     -0.41106876	    -14.60834221	      7.04117363	      0.12289166	    -11.99307287	     -0.00000000	     -0.00000000	     -6.29848215	     -2.78106308	      7.59385534	     12.27802268	      0.21429192	      7.90271481	      0.00000000	      0.00000000	      4.92365959	      2.16877963	    -10.70432222	     -0.00000000	     -0.00000000	      0.00000000	      0.00000000	      0.00000000	     -0.00000000	      0.00000000	      0.00000000	      0.00000000	     -0.00000000	      0.00000000	      0.00000000	     -0.00000000	      0.00000000
      0.39000000	     -3.80229960	     14.04352030	    -81.15824621	      0.14811689	      0.94689551	     -0.74805172	     38.54710473	      0.37193435	    -14.53830034	      8.01376878	      0.13986665	    -12.34213941	      0.00000000	      0.00000000	     -5.88355681	     -3.36533154	      6.81808777	     14.00630574	      0.24445615	      6.17309849	      0.00000000	      0.00000000	      5.03419281	      2.90384170	    -10.40981237	      0.00000000	      0.00000000	      0.00000000	      0.00000000	      0.00000000	      0.00000000	      0.00000000	      0.00000000	      0.00000000	      0.00000000	      0.00000000	      0.00000000	      0.00000000	      0.00000000
      0.40000000	     -4.28006019	     13.98489165	    -81.53705559	      0.14618373	      0.94860039	     -0.73504342	     38.27172016	      1.13617480	    -14.37796567	      8.93361065	      0.15592092	    -12.42627535	      0.00000000	      0.00000000	     -5.39071377	     -3.90824084	      6.05457891	     15.93716166	      0.27815594	      4.27345135	      0.00000000	      0.00000000	      5.06618669	      3.58675389	    -10.09206022	      0.00000000	      0.00000000	      0.00000000	      0.00000000	      0.00000000	      0.00000000	      0.00000000	      0.00000000	      0.00000000	      0.00000000	      0.00000000	      0.00000000	      0.00000000	      0.00000000
      0.41000000	     -4.72547950	     13.88738960	    -81.93607492	      0.14422035	      0.95054805	     -0.72211985	     37.89930615	      1.90072048	    -14.12087494	      9.78224295	      0.17073235	    -12.28554785	      0.00000000	      0.00000000	     -4.80975588	     -4.42735563	      5.32953423	     18.05259636	      0.31507724	      2.23640721	      0.00000000	      0.00000000	      5.03916551	      4.24283870	     -9.75035717	      0.00000000	      0.00000000	      0.00000000	      0.00000000	      0.00000000	      0.00000000	      0.00000000	      0.00000000	      0.00000000	      0.00000000	      0.00000000	      0.00000000	      0.00000000	      0.00000000
